<?xml version="1.0" encoding="utf-8"?>
<!-- Generator: Adobe Illustrator 19.1.0, SVG Export Plug-In . SVG Version: 6.00 Build 0)  -->
<svg version="1.1" id="Layer_1" xmlns="http://www.w3.org/2000/svg" xmlns:xlink="http://www.w3.org/1999/xlink" x="0px" y="0px"
	 viewBox="0 0 1154.9 238.5" style="enable-background:new 0 0 1154.9 238.5;" xml:space="preserve">
<g>
	<path d="M212.4,86.8c1.2,0.9,1.7,1.2,2,1.5c7.4,8.4,7.4,8.5-1.4,15.2c-12.6,9.4-24.6,19.4-33.8,32.4c-2.5,3.6-4.6,7-1,11.3
		c-0.4,0.4-0.7,0.8-1.1,1.3c-2.6-1.2-5.7-1.8-7.7-3.7c-1.1-1-1-4.5-0.1-6.2c4-7.6,8.5-15,12.8-22.4c0.9-1.6,2.2-3,3.3-4.6
		c-0.4-0.5-0.9-1-1.3-1.6c-7.7,4.8-15.9,8.8-22.9,14.4c-10.5,8.4-20.1,17.8-30.1,26.8c-0.6,0.6-1.1,1.3-1.8,1.8c-2.8,2-6,3.6-9,0.8
		c-3.2-3-0.3-5.5,1.5-7.7c7.1-8.8,14.3-17.5,21.5-26.3c0.5-0.6,0.9-1.3,2-3.1c-3.1,0.6-5.1,0.9-7,1.4c-16.6,4.9-33.2,9.5-49.7,14.8
		c-7.6,2.5-14.8,6.3-22.3,9.2c-9.2,3.7-18.5,7-27.7,10.7c-1.5,0.6-2.6,2.3-4,3.6c-3.4,0.8-7.2,1.5-10.9,2.6
		c-5.2,1.6-9.7,1.9-13.2-3.3c-1.2-1.7-4.5-2.6-4.6-4.2c-0.4-3.1-0.3-7.2,1.4-9.6C26,115.5,49.7,94.2,76.8,76.7
		c32.2-20.8,65.9-38.9,100.4-55.8c3.1-1.5,6.1-3.4,9.3-4.9c2.7-1.3,6-2.4,7.8,1.2c2.8,5.5,2.2,9.6-1.4,11.9
		c-2.4,1.5-4.8,2.9-7.3,4.4c-19.5,11.4-34.5,27.7-48.2,45.1c-2.4,3.1-3,7.6-4.6,11.4c-0.6,1.4-1.2,3.6-2.2,3.9
		c-1.5,0.3-4-0.2-4.8-1.4c-3-4.1-5.9-8.4-8.1-13c-0.7-1.6,0.9-4.3,1.7-7.7C102.6,76.9,89.7,87.1,76,95.7c-3.3-5.1-4.2-4.8-8.6-0.6
		c-3.9,3.7-9.1,6.1-13.2,9.6c-10.3,8.8-20.5,17.8-30.6,26.9c-2.1,1.9-3.7,4.3-5.9,6.9c1.2,0.4,2,0.6,2.9,0.9
		c-1.1,1.8-2.2,3.5-3.3,5.3c0.2,0.4,0.4,0.8,0.6,1.1c7.1-2.1,14.3-3.7,21.2-6.3c29-10.9,58.5-20.2,88.9-26.6
		c5.7-1.2,11.5-1.9,17.3-2.3c4.3-0.3,7.4-1.6,10.3-5c24.2-28.2,49.4-55.4,77.2-80.2c5.1-4.5,10.5-8.8,16-12.8
		c7.2-5.2,15.1-1.4,16.7,7.9c-16.4,4.4-27.1,17.1-38.7,28c-19.4,18.2-37.9,37.4-56.8,56.2c-0.7,0.7-1.2,1.5-2.7,3.4
		c2.9-0.4,4.7-0.2,6-0.9C186.3,100.6,199.3,93.7,212.4,86.8z"/>
	<path d="M552.1,63.1c-4.6,2.6-9.2,5.2-13.7,7.8c0.2,0.7,0.4,1.5,0.6,2.2c2.3,0,4.7,0.3,7,0c15-1.9,30-4.3,45.1-5.9
		c12-1.2,24.1-1.5,36.1-2.4c2.1-0.2,4.6-1,6.2-2.4c10.3-8.7,20.5-17.5,30.7-26.4c3.6-3.1,6.4-2.9,9.1,1.1c0.9,1.4,1.7,2.9,2.4,4.4
		c3.7,7.3,3.2,8.9-3.8,13.2c-1.6,1-3.1,2.1-4.7,3.1c0.1,0.4,0.2,0.9,0.4,1.3c7.4,0,14.7,0.2,22.1-0.2c1.4-0.1,2.8-2.2,4.2-3.4
		c14.1-13,28.1-26,42.1-39c1.2-1.1,2.6-2,4-3c10.2-7.5,9.3-4.2,16.7,2.5c1.8,1.6,2.6,3.7-0.6,5.5c-6.6,3.6-13.6,7-19.5,11.7
		c-9.2,7.4-17.5,15.8-26.2,23.9c-0.7,0.6-1.2,1.5-2.4,2.9c6.8,1.2,12.9,2.1,19,3.3c3.2,0.7,6.5,1.6,9.4,3.1c1.5,0.8,3.4,3.4,3.1,4.8
		c-0.5,2.2-2.3,5.1-4.2,5.8c-3.8,1.4-8.1,1.6-12.2,2c-11.9,1.1-23.9,1.9-35.8,3c-1.5,0.1-3.3,0.9-4.4,2
		c-8.7,8.9-17.3,17.8-25.3,27.7c15.8-8.3,31.6-16.6,48.1-25.4c2.4,3.4,4.8,6.3,6.6,9.5c0.4,0.8-0.9,3.1-2,4.1
		c-10,8.7-20.3,17.2-30.2,26c-3.2,2.8-5.5,6.6-8.2,10c-2.6,3.3-4.4,6.8-0.7,11c-0.4,0.4-0.8,0.8-1.3,1.3c-2.6-1.2-5.7-1.8-7.7-3.7
		c-1-0.9-0.9-4.3-0.1-5.9c4.1-7.7,8.6-15.3,13-22.8c0.9-1.5,2-2.8,3-4.2c-0.3-0.4-0.6-0.8-0.9-1.1c-3.5,1.7-7.1,3.2-10.4,5.2
		c-15.2,9.4-29.3,20.3-41.3,33.6c-1.8,2-4.1,4.1-6.5,5c-1.7,0.6-5.1,0.1-6-1.2c-0.9-1.3-0.2-4.5,0.9-6.1c3.7-5.1,7.8-10,11.9-14.7
		c18.2-21,36.5-42,54.8-63c0.3-0.4,0.5-0.8,1.3-2.4c-4,0.3-7.3,0.2-10.6,0.7c-5.9,0.9-11.7,2-17.5,3.4c-3.8,0.9-8.1,1.7-11,4
		c-13.9,11.6-27.5,23.6-40.9,35.8c-6.4,5.9-12.3,12.4-18.4,18.6c0.5,0.6,0.9,1.2,1.4,1.9c18.2-9.7,36.5-19.3,54.7-29
		c0.2,0.4,0.5,0.8,0.7,1.2c-6,4-12.2,7.7-18.1,11.9c-10.8,7.7-21.5,15.5-32.1,23.5c-4.7,3.5-8.9,7.7-13.6,11.3
		c-3.9,2.9-9.1,2.5-12.2-1.2c-2.8-3.4-2.4-7.3,0.3-10.9c16.2-21.4,33.3-42.1,52.8-60.6c1.3-1.3,2.6-2.6,3.8-4
		c0.3-0.3,0.2-0.9,0.4-1.7c-1.2-0.3-2.3-0.8-3.3-0.7c-7.9,0.8-15.8,1.8-23.6,2.7c-2.8,0.3-5.6,0.7-8.4,1.1
		c-6.7,0.7-13.4,1.5-20.1,2.1c-7.1,0.7-14.2,1.6-21.3,1.9c-2.3,0.1-5.1-0.7-7-2c-1.7-1.1-3.1-3.6-3.3-5.5c-0.1-1.2,2.2-3.1,3.8-3.8
		c4.3-2,8.8-3.6,13.3-5.4C551.8,62.6,551.9,62.8,552.1,63.1z M729.6,70.3c-0.1-0.5-0.2-1-0.4-1.5c-28.7-6.4-30.2-3.6-40.9,11.7
		C702.7,77,716.1,73.7,729.6,70.3z M626.8,69.1c-0.1-0.7-0.2-1.5-0.3-2.2c-3.8,0.5-7.6,1-11.4,1.5c0.1,0.7,0.2,1.3,0.3,2
		C619.2,70,623,69.5,626.8,69.1z"/>
	<path d="M379.7,123.4c-6.1,2.9-11.1,5.2-16,7.6c-12,5.7-23.6,12.3-36.9,14.9c-1.6,0.3-3.6,1-4.9,0.4c-2.2-1-4.6-2.5-5.8-4.5
		c-0.6-1,0.8-4.1,2.2-5.3c5.5-4.6,11.1-9.1,17.1-13c13.9-9.1,28.1-17.8,42.2-26.6c2.7-1.6,5.7-2.7,8.7-3.7
		c9.5-3.1,12.5-1.6,15.6,8.8c2.4-1.1,4.8-2.1,7-3.3c3.5-1.9,5.4-1.5,6.2,2.9c0.9,4.6,0.1,8-3.7,11.4c-5.3,4.7-9.5,10.6-14.6,15.6
		c-9.5,9.3-19.3,18.3-29,27.4c-1.2,1.1-2.4,2.2-4,3.6c1.1,0.9,1.8,1.8,2.6,2c5.8,1.5,11.6,2.7,17.4,4.2c10.9,2.9,21.8,5.5,32.5,8.9
		c6.9,2.2,13.4,5.7,19.8,9c2.1,1.1,4,3,5.6,4.9c3.4,4.3,3.1,8.5-1.5,11.6c-3.3,2.3-7.3,4.1-11.2,5c-10.7,2.4-21.5,4.2-32.5,5.1
		c3.6-0.9,7.3-1.5,10.9-2.6c8.4-2.6,16.9-5.1,25.1-8.2c2.2-0.8,5.1-3.7,5.1-5.7c0-2.3-2.1-5.4-4.2-7C418.7,175.5,401,172,383.5,168
		c-9.5-2.2-19-2.6-28.6-1.4c-1.4,0.2-2.9,0.9-4,1.7c-15.4,12.5-32.2,23.1-49.7,32.3c-14.5,7.6-29.6,14.4-44.9,20.3
		c-9.2,3.5-19.3,5.5-29.1,6.7c-17.4,2-34.9,3.2-52.2-1.4c-9.5-2.5-15.9-8.9-19.1-17.4c-1.1-2.8,1.8-9.3,4.8-11.3
		c10-6.7,20.4-13.3,31.6-17.8c25.3-10,52.1-14.5,79-17.7c22.8-2.7,45.6-4.1,68.5-2c1.7,0.1,3.9-0.4,5-1.4
		c11.4-10.7,22.7-21.5,33.9-32.4C379,125.9,379,125.3,379.7,123.4z M166,210.1c5.3,2.9,8.6,5.3,12.3,6.5c17.5,6.1,35.6,5.2,53.3,2.1
		c12.4-2.2,24.5-6.8,36.3-11.6c24.3-9.9,46.7-23.4,67.3-39.7c1.7-1.3,2.8-3.2,4.3-4.8c-0.3-0.5-0.5-1-0.8-1.6
		c-6.2,0.3-12.4,0.5-18.6,0.9c-5.1,0.3-10.2,0.9-15.4,1c-1.2,0-2.5-1.6-3.3-2.1c-1.6,0.7-2.9,1.8-4.4,2c-9.4,1.3-18.9,2.5-28.4,3.7
		c-4,0.5-8.1,0.5-11.9,1.4c-8.6,2-17.3,4.3-25.8,6.9c-10.3,3.1-20.8,6-30.7,10.2c-7.1,3-13.5,7.6-19.8,12.1
		C175.5,200.5,171.5,205,166,210.1z M392.4,104.7c-0.3-0.6-0.5-1.2-0.8-1.8c-12.6,2.7-23.9,7.9-34.4,15.2c0.2,0.5,0.4,0.9,0.6,1.4
		C369.3,114.5,380.9,109.6,392.4,104.7z"/>
	<path d="M869.3,131.2c17.9-9.5,35.9-19,53.8-28.6c0.2,0.4,0.5,0.8,0.7,1.2c-5.7,3.8-11.4,7.6-17,11.5
		c-10.9,7.8-21.9,15.6-32.6,23.6c-4.4,3.3-8.3,7.3-12.7,10.6c-4.8,3.7-10,3.3-13.4-0.4c-2.7-3-2.3-7.2,1.2-11.8
		c15.8-20.9,32.4-41.1,51.6-59c1.9-1.8,4.5-2.9,6.7-4.3c-0.6-0.7-1.1-1.3-1.7-2c-0.8-0.4-1.6-0.8-3.1-1.6c3-0.6,5.4-1.1,7.8-1.6
		c-0.1-0.6-0.2-1.2-0.3-1.8c-5.6,0.6-11.3,1.2-16.9,1.8c0,0.4,0,0.8,0.1,1.2c1.7,0,3.4,0,5.1,0c0.1,0.4,0.2,0.8,0.3,1.2
		c-1.4,0.3-2.7,0.7-4.1,0.9c-5.7,0.7-11.5,1.3-17.2,2c-14.8,1.7-29.5,3.6-44.3,4.9c-3.8,0.3-7.9-0.7-11.5-2.1
		c-1.7-0.6-3.1-3.5-3.3-5.5c-0.1-1.1,2.2-3,3.9-3.7c4.5-2,9.1-3.7,14-4.8c-4.6,2.7-9.3,5.3-13.9,8c0.2,0.7,0.5,1.5,0.7,2.2
		c2.4,0,4.7,0.3,7.1,0c15-1.9,30-4.3,45.1-5.9c11.8-1.2,23.7-1.5,35.6-2.4c2.3-0.2,5-0.9,6.7-2.3c10.4-8.6,20.5-17.5,30.8-26.3
		c1.1-0.9,2.5-2.2,3.7-2.1c6.5,0.4,6.8,6.6,9.1,10.7c1.7,3,1.2,6.1-2.2,8.2c-2.6,1.6-5.2,3.3-7.7,5c0.1,0.4,0.2,0.9,0.4,1.3
		c2,0.1,4.1,0.3,6.1,0.3c18-0.3,36,0.2,53.7,4c3.2,0.7,6.5,1.7,9.4,3.2c1.4,0.7,3.2,3.3,2.8,4.5c-0.6,2.3-2.2,5.3-4.1,5.9
		c-4,1.4-8.4,1.6-12.7,2c-11.9,0.9-23.8,1.6-35.9,2c14.2-3.6,28.4-7.2,42.6-10.7c0-0.8,0-1.5-0.1-2.3c-7.7-0.7-15.5-2-23.2-2
		c-10.4-0.1-20.9,0.4-31.2,1.3c-8.7,0.8-17.8,1.5-25.8,4.6c-7.5,3-14.3,8.5-20.5,13.9c-12.2,10.6-23.8,21.7-35.5,32.9
		c-3.4,3.3-6,7.4-8.9,11.1C868.6,130.3,869,130.7,869.3,131.2z"/>
	<path d="M294.1,112.3c9.4-4,18.8-8.1,28.3-12.1c4.8-2,9.7-3.6,14.5-5.3c3.9-1.4,6.8-0.3,8.6,3.5c1.1,2.4,1.1,4.3-1.4,6
		c-4.3,2.8-8.6,5.6-12.8,8.6c-14.5,10.4-28.9,20.9-43.8,31.7c10-13.7,23.3-23.6,35.2-34.9c-0.3-0.4-0.6-0.8-0.8-1.3
		c-1.6,0.6-3.1,1.2-4.7,1.9c-21.5,9.5-40.7,22.4-59.3,36.6c-1.5,1.1-2.9,2.2-4.4,3.3c-4.5,3.3-8,3.1-11.5-1.3
		c-0.7-0.8-0.3-3.5,0.6-4.4c14.5-14.9,29.1-29.7,43.7-44.6c3.8-3.9,7.4-8,11.6-12.6c2.4,3.1,5.3,6.1,7.3,9.6c0.6,1.1-0.4,4-1.6,5.2
		c-3.2,3.2-6.9,5.9-10.5,8.8C293.6,111.7,293.9,112,294.1,112.3z"/>
	<path d="M704,118.9c-0.9,1.1-1.8,2.2-2.7,3.3c0.2,0.2,0.4,0.5,0.6,0.7c5.2-4.1,12.8-7.2,15-12.6c2.4-5.7,6.5-7.3,10.5-9.8
		c4.5-2.7,9.4-5.1,14.5-6.6c6.6-2,13.5-4,20.4-0.7c5.8,2.8,9.2,8.8,7.9,15c-0.2,1.2-2.3,2.5-3.7,2.8c-24,4.1-45.8,13.7-66.6,25.9
		c-0.6,0.4-1,1-2.5,2.6c16.9-0.9,31.6-6,46.9-9.1c-2.4,1.1-4.8,2.3-7.2,3.3c-2.6,1.1-5.2,2.2-7.9,3.1c-9.7,3.5-19.3,7.1-29.1,10.3
		c-4.2,1.4-10,2.8-12.4-1.6c-1.5-2.7,0.2-8.2,2.1-11.4c3.5-5.9,8.3-11,12.6-16.4C702.9,118.1,703.5,118.5,704,118.9z M751.8,105.1
		c-0.2-0.7-0.4-1.5-0.6-2.2c-6.6,2.2-13.2,4.5-19.9,6.7c0.2,0.6,0.4,1.2,0.6,1.7C738.6,109.3,745.2,107.2,751.8,105.1z"/>
	<path d="M415.1,140.4c15.1-3.4,30.1-6.9,45.2-10.3c0.1,0.1,0.1,0.3,0.2,0.4c-5.3,2.2-10.6,4.5-16,6.5c-9.3,3.5-18.7,6.9-28.1,9.9
		c-4.2,1.3-10,3-12.4-1.5c-1.5-2.9,0.1-8.5,2.1-11.9c3.2-5.6,7.9-10.4,11.9-15.5c0.4,0.3,0.9,0.7,1.3,1c-0.7,1.1-1.4,2.1-2,3.2
		c0.2,0.2,0.4,0.4,0.6,0.6c5.3-4.2,13.2-7.3,15.3-12.7c3.3-8.5,10.4-9.7,16.4-12.6c6.5-3.2,14.1-5,21.4-5.7
		c9.9-0.9,16.1,6.1,15.3,16.1c-0.1,1.1-2.1,2.7-3.4,2.9c-24.2,4-46.1,13.7-67.1,26c-0.5,0.3-0.8,0.9-1.2,1.4
		C414.7,139,414.9,139.7,415.1,140.4z M467.8,105.1c-0.2-0.7-0.4-1.5-0.6-2.2c-6.6,2.3-13.3,4.5-19.9,6.8c0.2,0.6,0.4,1.2,0.6,1.7
		C454.5,109.3,461.2,107.2,467.8,105.1z"/>
	<path d="M900.1,140.3c6.8-9.1,18-12.3,19.5-24.1c0.2-1.7,2.1-3.4,3.6-4.6c11.7-9.2,24.9-15.4,39.6-17.8c2.7-0.4,5.7-0.2,8.3,0.5
		c5.5,1.6,8.3,8.1,5.1,12.7c-3,4.3-6.4,8.8-10.7,11.6c-13.4,8.9-27.2,17.2-41,25.3c-3.6,2.1-8,3.3-12.2,4.3
		C905.4,149.9,900.8,146.3,900.1,140.3z M966.3,103.4c-0.2-0.5-0.5-0.9-0.7-1.4c-1.5,0.4-3.1,0.6-4.5,1.2
		c-16.2,7.7-30.2,18.7-44.3,29.5c-1.1,0.9-1.8,2.3-2.6,3.5c0.4,0.4,0.8,0.8,1.2,1.2C934.2,128.8,951.9,118.5,966.3,103.4z"/>
	<path d="M959.8,139.7c7.1-8.3,18.1-12,19.9-24.1c0.2-1.4,1.7-2.8,3-3.8c11.8-9.3,25.1-15.6,40-18.1c1.9-0.3,4-0.4,5.9-0.1
		c7.5,1.1,11.1,8.2,6.8,14.5c-2.7,3.9-6,7.8-9.9,10.3c-13.4,8.8-27.2,17.2-41,25.4c-3.6,2.1-8,3.3-12.1,4.3
		C965,150,960.4,146.4,959.8,139.7z M1026,103.6c-0.2-0.5-0.4-1-0.6-1.4c-1.8,0.4-3.9,0.5-5.3,1.4c-9,5.6-17.8,11.5-26.7,17.3
		c-1.6,1-3.4,1.8-5,2.7c-5.6,3.3-10.4,7.5-13.9,13.2C994,129.1,1011.4,118.4,1026,103.6z"/>
	<path d="M1140.2,23.2c2.1,5.6-1.1,9.4-4.3,12.6c-9.2,9.3-18.8,18.3-28.3,27.4c-1.1,1.1-2.6,1.8-4,2.7c-0.3-0.4-0.6-0.7-1-1.1
		c5.3-5.2,10.7-10.4,16-15.6c4.7-4.5,9.5-8.8,14.1-13.4c1.2-1.2,1.9-3,2.8-4.5c-0.5-0.4-0.9-0.8-1.4-1.2c-1.8,1.8-3.5,3.5-5.3,5.3
		c-17.6,17.1-35.2,34.2-52.6,51.5c-1.6,1.6-1.5,4.9-2.9,6.8c-2.8,3.9-5.9,7.7-9.3,11.1c-4.2,4.2-8.8,7.9-13.1,12
		c-0.7,0.7-0.8,2.1-1.2,3.2c0.6,0.1,1.2,0.1,1.9,0.2c-3.4,5.4-6.8,10.7-10.2,16.1c0.3,0.3,0.6,0.6,0.8,1c5.4-3.8,10.8-7.5,16.2-11.3
		c0.5,0.6,1.1,1.1,1.6,1.7c-1.7,1-3.5,1.8-5,3.1c-7.6,6.7-15,13.6-22.7,20.3c-4.5,3.9-7.1,3.3-10.6-1.6c-2.9-4.1-4.6-7.5-0.2-12.1
		c14.3-15.1,28.2-30.6,42.4-45.8c4.9-5.2,9.9-10.4,15.1-15.3c3.7-3.5,6.5-7.9,12.2-9.5c3.9-1.1,6.9-5.4,10.4-8.2
		c-0.5-0.6-1.1-1.2-1.6-1.7c-1.2,0.9-2.4,1.8-3.6,2.6c-0.4-0.4-0.7-0.7-1.1-1.1c1.8-1.3,3.7-2.5,5.2-4c9.3-9.1,18.5-18.2,27.8-27.3
		C1131.7,24,1135.1,21.5,1140.2,23.2z"/>
	<path d="M235.6,159.3c-4.9,0.1-6.2-2.2-6.6-5.5c-0.8-7.8,1.2-14.9,5-21.5c2.5-4.3,5.2-8.5,7.7-12.8c0.6-1.1,1-2.2,0.7-4.1
		c-2.8,1.7-5.5,3.3-8.3,5c-9.5,6-19.1,12-28.5,18.1c-2.9,1.9-5.3,2.3-7.7-0.7c-2.6-3.1-2.6-6,0.4-8.7c5.4-4.9,10.5-10.2,16.4-14.5
		c16-11.6,33.3-20.5,52.9-24.7c1.3-0.3,2.6-0.8,3.9-0.7c1.6,0.1,4.3,0.5,4.5,1.3c0.6,1.8,0.4,4.2-0.5,5.9c-1,1.8-2.9,3.2-4.7,4.3
		c-11.6,7.5-20,18.3-29.6,27.9c-5,5-8.4,10-9.7,16.6C230.6,150.2,229.9,155.1,235.6,159.3z M226.1,119.8c0.3,0.4,0.6,0.8,0.9,1.2
		c4.6-3,9.2-5.9,13.9-8.9c-0.3-0.4-0.6-0.8-0.8-1.3C235.4,113.8,230.7,116.8,226.1,119.8z"/>
	<path d="M1098.1,71.1c-4.5,4.7-9.1,9.5-13.6,14.2c-0.4-0.4-0.8-0.8-1.2-1.1c4.7-4.6,9.3-9.2,14-13.8
		C1097.5,70.6,1097.8,70.8,1098.1,71.1z"/>
</g>
</svg>
